<svg xmlns="http://www.w3.org/2000/svg" xmlns:xlink="http://www.w3.org/1999/xlink" fill="none" version="1.1" width="18" height="18.733154296875" viewBox="0 0 18 18.733154296875">
    <g>
        <path fill="currentColor"  d="M10,16.7332L16,16.7332L16,7.71131L9,2.26687L2,7.71131L2,16.7332L8,16.7332L8,10.7332L10,10.7332L10,16.7332ZM18,17.7332C18,18.2855,17.5523,18.7332,17,18.7332L1,18.7332C0.44772,18.7332,0,18.2855,0,17.7332L0,7.22223C0,6.91364,0.14247,6.62232,0.38606,6.43288L8.3861,0.210645C8.7472,-0.070215,9.2528,-0.070215,9.6139,0.210645L17.6139,6.43288C17.8575,6.62232,18,6.91364,18,7.22223L18,17.7332Z" fill-opacity="1"/>
    </g>
</svg>