<svg xmlns="http://www.w3.org/2000/svg" xmlns:xlink="http://www.w3.org/1999/xlink" fill="none" version="1.1" width="20" height="20" viewBox="0 0 20 20"><g><path fill="currentColor" d="M10,18L18,18L18,20L10,20C4.47715,20,0,15.5228,0,10C0,4.47715,4.47715,0,10,0C15.5228,0,20,4.47715,20,10C20,12.2512,19.2561,14.3287,18.0007,16L15.2916,16C16.9525,14.5341,18,12.3894,18,10C18,5.58172,14.4183,2,10,2C5.58172,2,2,5.58172,2,10C2,14.4183,5.58172,18,10,18ZM10,8C8.8954,8,8,7.10457,8,6C8,4.89543,8.8954,4,10,4C11.1046,4,12,4.89543,12,6C12,7.10457,11.1046,8,10,8ZM6,12C4.89543,12,4,11.1046,4,10C4,8.8954,4.89543,8,6,8C7.10457,8,8,8.8954,8,10C8,11.1046,7.10457,12,6,12ZM14,12C12.8954,12,12,11.1046,12,10C12,8.8954,12.8954,8,14,8C15.1046,8,16,8.8954,16,10C16,11.1046,15.1046,12,14,12ZM10,16C8.8954,16,8,15.1046,8,14C8,12.8954,8.8954,12,10,12C11.1046,12,12,12.8954,12,14C12,15.1046,11.1046,16,10,16Z" fill-opacity="1"/></g></svg>